REM MD5 ddc3b60e19c35b5f06a5cb95bd9da416
FILE "Doraemon - Nobita to Fukkatsu no Hoshi (Japan).bin" BINARY
  TRACK 01 MODE2/2352
    INDEX 01 00:00:00
  TRACK 02 AUDIO
    INDEX 00 31:40:06
    INDEX 01 32:08:00
  TRACK 03 AUDIO
    INDEX 00 33:07:02
    INDEX 01 33:13:00
  TRACK 04 AUDIO
    INDEX 00 35:12:27
    INDEX 01 35:18:00
REM LEADOUT 39:06:07
